<svg width="45" height="13" viewBox="0 0 45 13" fill="none" xmlns="http://www.w3.org/2000/svg">
<path d="M3.728 9.888H7.312V12H0.992V0.768H3.728V9.888ZM13.929 12.112C12.873 12.112 11.9023 11.8667 11.017 11.376C10.1423 10.8853 9.44367 10.2027 8.921 9.328C8.409 8.44267 8.153 7.45067 8.153 6.352C8.153 5.25333 8.409 4.26667 8.921 3.392C9.44367 2.51733 10.1423 1.83467 11.017 1.344C11.9023 0.853333 12.873 0.608 13.929 0.608C14.985 0.608 15.9503 0.853333 16.825 1.344C17.7103 1.83467 18.4037 2.51733 18.905 3.392C19.417 4.26667 19.673 5.25333 19.673 6.352C19.673 7.45067 19.417 8.44267 18.905 9.328C18.393 10.2027 17.6997 10.8853 16.825 11.376C15.9503 11.8667 14.985 12.112 13.929 12.112ZM13.929 9.616C14.825 9.616 15.5397 9.31733 16.073 8.72C16.617 8.12267 16.889 7.33333 16.889 6.352C16.889 5.36 16.617 4.57067 16.073 3.984C15.5397 3.38667 14.825 3.088 13.929 3.088C13.0223 3.088 12.297 3.38133 11.753 3.968C11.2197 4.55467 10.953 5.34933 10.953 6.352C10.953 7.344 11.2197 8.13867 11.753 8.736C12.297 9.32267 13.0223 9.616 13.929 9.616ZM28.6511 4.32C28.4485 3.94667 28.1551 3.664 27.7711 3.472C27.3978 3.26933 26.9551 3.168 26.4431 3.168C25.5578 3.168 24.8485 3.46133 24.3151 4.048C23.7818 4.624 23.5151 5.39733 23.5151 6.368C23.5151 7.40267 23.7925 8.21333 24.3471 8.8C24.9125 9.376 25.6858 9.664 26.6671 9.664C27.3391 9.664 27.9045 9.49333 28.3631 9.152C28.8325 8.81067 29.1738 8.32 29.3871 7.68H25.9151V5.664H31.8671V8.208C31.6645 8.89067 31.3178 9.52533 30.8271 10.112C30.3471 10.6987 29.7338 11.1733 28.9871 11.536C28.2405 11.8987 27.3978 12.08 26.4591 12.08C25.3498 12.08 24.3578 11.84 23.4831 11.36C22.6191 10.8693 21.9418 10.192 21.4511 9.328C20.9711 8.464 20.7311 7.47733 20.7311 6.368C20.7311 5.25867 20.9711 4.272 21.4511 3.408C21.9418 2.53333 22.6191 1.856 23.4831 1.376C24.3471 0.885333 25.3338 0.639999 26.4431 0.639999C27.7871 0.639999 28.9178 0.965333 29.8351 1.616C30.7631 2.26667 31.3765 3.168 31.6751 4.32H28.6511ZM38.6946 12.112C37.6386 12.112 36.668 11.8667 35.7826 11.376C34.908 10.8853 34.2093 10.2027 33.6866 9.328C33.1746 8.44267 32.9186 7.45067 32.9186 6.352C32.9186 5.25333 33.1746 4.26667 33.6866 3.392C34.2093 2.51733 34.908 1.83467 35.7826 1.344C36.668 0.853333 37.6386 0.608 38.6946 0.608C39.7506 0.608 40.716 0.853333 41.5906 1.344C42.476 1.83467 43.1693 2.51733 43.6706 3.392C44.1826 4.26667 44.4386 5.25333 44.4386 6.352C44.4386 7.45067 44.1826 8.44267 43.6706 9.328C43.1586 10.2027 42.4653 10.8853 41.5906 11.376C40.716 11.8667 39.7506 12.112 38.6946 12.112ZM38.6946 9.616C39.5906 9.616 40.3053 9.31733 40.8386 8.72C41.3826 8.12267 41.6546 7.33333 41.6546 6.352C41.6546 5.36 41.3826 4.57067 40.8386 3.984C40.3053 3.38667 39.5906 3.088 38.6946 3.088C37.788 3.088 37.0626 3.38133 36.5186 3.968C35.9853 4.55467 35.7186 5.34933 35.7186 6.352C35.7186 7.344 35.9853 8.13867 36.5186 8.736C37.0626 9.32267 37.788 9.616 38.6946 9.616Z" fill="#00329B"/>
</svg>
